<svg xmlns="http://www.w3.org/2000/svg" xmlns:xlink="http://www.w3.org/1999/xlink" id="Capa_1" width="429.912" height="33.395" x="0" y="0" enable-background="new 0 0 429.912 33.395" version="1.1" viewBox="0 0 429.912 33.395" xml:space="preserve"><g id="Pilot_V5"><rect width="142.25" height="26.75" x="285.75" y="6.645" fill="#40A7AA"/><circle cx="415.487" cy="20.019" r="6.667" fill="#319191"/><path fill="#A9A9A9" d="M426.014,0H426h-1.583H309.514v1.583l12.611,5.042l7.625-5.042h94.667l0.001,5.042H426V1.583h0.014V0z M322.083,4.87l-8.802-3.287h14.062L322.083,4.87z"/><rect width="1.906" height="26.75" x="428.006" y="6.645" fill="#319191"/><rect width="165.25" height="24.75" x="120.5" y="7.645" fill="#319191"/><rect width="83.125" height="22.625" x="37.375" y="8.707" fill="#40A7AA"/><rect width="97.833" height="9.666" x="129.667" y="15.187" fill="#226362" stroke="#FFF" stroke-miterlimit="10"/><polygon fill="#319191" points="34.625 9.389 34.625 15.186 31.769 15.186 31.769 10.098 29.105 10.758 29.105 15.186 26.441 15.186 26.441 11.418 24.312 11.946 24.312 15.186 21.175 15.186 21.175 12.725 18.762 13.323 18.762 15.186 16.408 15.186 16.408 13.906 11.25 15.186 11.25 24.853 16.408 26.132 16.408 24.853 18.762 24.853 18.762 26.716 21.175 27.314 21.175 24.853 24.312 24.853 24.312 28.092 26.441 28.62 26.441 24.853 29.105 24.853 29.105 29.28 31.769 29.941 31.769 24.853 34.625 24.853 34.625 30.649 37.375 31.332 37.375 24.853 37.375 15.186 37.375 8.707"/><polygon fill="#DDD" points="5.375 18.582 5.375 20.02 5.375 21.457 11.25 23.457 11.25 20.02 11.25 16.582"/><rect width="5.375" height="1.562" y="19.238" fill="#A9A9A9"/></g></svg>