<svg xmlns="http://www.w3.org/2000/svg" xmlns:xlink="http://www.w3.org/1999/xlink" id="Capa_1" width="38.333" height="295.692" x="0" y="0" enable-background="new 0 0 38.333 295.692" version="1.1" viewBox="0 0 38.333 295.692" xml:space="preserve"><g id="Pen"><polygon fill="#3A3A3A" points="14.166 248.531 0 248.531 14.487 286.538 23.845 286.538 38.333 248.531"/><polygon fill="#2D2D2D" points="34.329 193.079 31.097 10.165 17.166 10.165 8.234 10.165 4.003 193.079 0 248.531 14.166 248.531 38.333 248.531"/><rect width="4.312" height="6.987" x="17.01" y="286.538" fill="#2D2D2D"/><path fill="#2D2D2D" d="M20.166,0.002c0,0-9.725-0.385-9.725,10.163h6.725h11.725C28.891-0.383,20.166,0.002,20.166,0.002z"/><polygon fill="#3A3A3A" points="8.234 10.165 8.196 15.863 31.291 15.863 31.097 10.165"/><path fill="#4B4A4A" d="M19.166,160.655c-3.693,0-4.679,3.94-4.679,3.94v57.25c0,0,0.985,3.94,4.679,3.94s4.679-3.94,4.679-3.94 v-57.25C23.845,164.596,22.859,160.655,19.166,160.655z"/><g><defs><rect id="SVGID_1_" width="13.297" height="28.44" x="12.518" y="201.407"/></defs><clipPath id="SVGID_2_"><use overflow="visible" xlink:href="#SVGID_1_"/></clipPath><path fill="#3A3A3A" d="M19.166,160.655c-3.693,0-4.679,3.94-4.679,3.94v57.25 c0,0,0.985,3.94,4.679,3.94s4.679-3.94,4.679-3.94v-57.25C23.845,164.596,22.859,160.655,19.166,160.655z" clip-path="url(#SVGID_2_)"/></g><polygon fill="#E29088" points="0 248.531 .75 251.001 37.583 251.001 38.333 248.531"/><ellipse cx="19.167" cy="293.525" fill="#2D2D2D" rx="2.157" ry="2.166"/></g></svg>